<svg width="30" height="30" viewBox="0 0 30 30" fill="none" xmlns="http://www.w3.org/2000/svg">
<path d="M15 10V15L17.5 17.5" stroke="#9191AF" stroke-width="3.5" stroke-linecap="round" stroke-linejoin="round"/>
<path d="M3.8125 25V18.75H10.0625M3.8125 13.75C4.09261 11 5.37533 8.44948 7.41592 6.58492C9.4565 4.72036 12.1121 3.67232 14.8761 3.64075C17.6401 3.60918 20.3189 4.59629 22.4016 6.41376C24.4842 8.23122 25.8249 10.7518 26.1677 13.4946C26.5106 16.2374 25.8316 19.0105 24.2604 21.2847C22.6893 23.5589 20.3358 25.175 17.6491 25.8248C14.9624 26.4745 12.1305 26.1124 9.69375 24.8075C7.25698 23.5027 5.3859 21.3463 4.4375 18.75L3.8125 13.75Z" stroke="#9191AF" stroke-width="3.5" stroke-linecap="round" stroke-linejoin="round"/>
</svg>
