<svg width="30" height="30" viewBox="0 0 30 30" fill="none" xmlns="http://www.w3.org/2000/svg">
<path d="M15 17.5C17.0711 17.5 18.75 15.8211 18.75 13.75C18.75 11.6789 17.0711 10 15 10C12.9289 10 11.25 11.6789 11.25 13.75C11.25 15.8211 12.9289 17.5 15 17.5Z" stroke="#565682" stroke-width="3.5" stroke-linecap="round" stroke-linejoin="round"/>
<path d="M22.0713 20.8212L16.7675 26.125C16.5356 26.3572 16.2601 26.5414 15.957 26.667C15.6538 26.7927 15.3288 26.8574 15.0006 26.8574C14.6724 26.8574 14.3475 26.7927 14.0443 26.667C13.7411 26.5414 13.4657 26.3572 13.2338 26.125L7.92875 20.8212C6.53028 19.4227 5.57792 17.6409 5.19211 15.7011C4.8063 13.7613 5.00437 11.7506 5.76126 9.92341C6.51815 8.09618 7.79988 6.53443 9.44436 5.43563C11.0888 4.33684 13.0222 3.75037 15 3.75037C16.9778 3.75037 18.9112 4.33684 20.5557 5.43563C22.2001 6.53443 23.4819 8.09618 24.2387 9.92341C24.9956 11.7506 25.1937 13.7613 24.8079 15.7011C24.4221 17.6409 23.4697 19.4227 22.0713 20.8212V20.8212Z" stroke="#565682" stroke-width="3.5" stroke-linecap="round" stroke-linejoin="round"/>
</svg>
