<svg width="308" height="51" viewBox="0 0 308 51" fill="none" xmlns="http://www.w3.org/2000/svg">
<path opacity="0.118234" fill-rule="evenodd" clip-rule="evenodd" d="M-0.618378 38.7581C-0.618378 38.7581 8.12587 26.7566 23.116 38.7581C30.2403 44.4619 36.6702 39.5393 45.2174 34.8488C48.6596 32.9598 57.9954 30.7504 57.9954 30.7504C57.9954 30.7504 76.2596 40.7756 85.1122 38.3707C96.6998 35.2227 107.684 14.3193 119.391 18.9496C150.366 31.2013 172.621 0.487619 190.926 9.71862C209.231 18.9496 214.279 45.434 227.689 38.7581C232.691 36.2677 239.552 36.0838 245.254 30.7504C249.742 26.5525 257.858 11.7869 257.858 11.7869L265.283 14.3769L273.336 19.6519L289.175 6.20139H307.496V34.6733C307.496 43.5098 300.333 50.6733 291.496 50.6733H11.2806C4.70261 50.6733 -0.627358 45.336 -0.618378 38.7581V38.7581Z" fill="url(#paint0_linear)"/>
<path d="M-6.50391 59.0014C-6.50391 59.0014 2.50215 21.2193 17.5 37.5C32.4979 53.7807 43.4295 37.0122 60 37.5C76.5705 37.9878 87.2634 40.2526 98 37.5C107.97 34.9438 109.038 15.7744 118.986 21.1095C149.978 37.7297 172.243 -3.93537 190.558 8.58706C208.872 21.1095 213.924 57.0371 227.34 47.9809C240.756 38.9246 245.463 48.2756 251.179 26.4101C256.895 4.54451 262.53 14.5996 268.883 21.1095C275.236 27.6194 283.041 11.2821 283.041 11.2821" stroke="url(#paint1_linear)" stroke-width="2.5"/>
<ellipse cx="286.469" cy="6.96666" rx="4.89097" ry="4.96666" stroke="#EF7DF7" stroke-width="2.5"/>
<defs>
<linearGradient id="paint0_linear" x1="299.706" y1="9.16976" x2="24.5589" y2="105.565" gradientUnits="userSpaceOnUse">
<stop stop-color="white"/>
<stop offset="0.0628959" stop-color="#EBD9F2"/>
<stop offset="1" stop-color="#B151E0"/>
</linearGradient>
<linearGradient id="paint1_linear" x1="283.041" y1="6.20139" x2="-6.50391" y2="6.20139" gradientUnits="userSpaceOnUse">
<stop stop-color="#EF7EF8"/>
<stop offset="1" stop-color="#9835C3"/>
</linearGradient>
</defs>
</svg>
