<svg width="314" height="59" viewBox="0 0 314 59" fill="none" xmlns="http://www.w3.org/2000/svg">
<path opacity="0.118234" fill-rule="evenodd" clip-rule="evenodd" d="M0.0165752 29.105C0.0165752 29.105 8.92739 30.7027 24.2031 44.9024C39.4787 59.102 59.0341 37.0037 59.0341 37.0037C59.0341 37.0037 90.7457 6.97001 122.311 21.4657C153.877 35.9615 176.555 -0.377809 195.209 10.544C213.863 21.4657 219.008 52.801 232.672 44.9024C237.77 41.9558 244.762 41.7382 250.573 35.428C255.146 30.4612 263.417 12.991 263.417 12.991L270.982 16.0555L279.19 22.2967L295.33 6.38251H314V43C314 51.8365 306.837 59 298 59H16.0089C7.16885 59 0.00397474 51.8311 0.00887606 42.9911L0.0165752 29.105Z" fill="url(#paint0_linear)"/>
<path d="M0 35.144C0 35.144 17.7449 26.1609 33 46.4048C48.2551 66.6486 57.5 35.144 57.5 35.144C57.5 35.144 90.6071 3.58717 122.13 24.2531C153.654 44.9189 176.301 -6.88826 194.93 8.6824C213.559 24.2531 214.354 66.8581 228 55.5973C243.657 33.4228 250.296 67.3261 258 31.3021C263.814 4.11401 268.137 16.1585 274.599 24.2531C281.061 32.3476 289 12.0335 289 12.0335" stroke="url(#paint1_linear)" stroke-width="2.5"/>
<circle cx="293" cy="7" r="5" stroke="#5997E6" stroke-width="2.5"/>
<defs>
<linearGradient id="paint0_linear" x1="306.061" y1="9.89458" x2="17.5298" y2="96.9581" gradientUnits="userSpaceOnUse">
<stop stop-color="white"/>
<stop offset="0.0423345" stop-color="#D9E2F2"/>
<stop offset="1" stop-color="#5187E0"/>
</linearGradient>
<linearGradient id="paint1_linear" x1="289" y1="5.716" x2="0" y2="5.716" gradientUnits="userSpaceOnUse">
<stop stop-color="#19324A" stop-opacity="0.501038"/>
<stop offset="1" stop-color="#4A71E1"/>
</linearGradient>
</defs>
</svg>
