<svg width="307" height="58" viewBox="0 0 307 58" fill="none" xmlns="http://www.w3.org/2000/svg">
<path opacity="0.118234" fill-rule="evenodd" clip-rule="evenodd" d="M-1.13464 9.39209C-1.13464 9.39209 -0.469873 18.8252 14.5205 31.9429C21.6448 38.1772 29.4501 43.5838 37.9974 38.4572C50.2249 31.123 57.5615 31.9429 57.5615 31.9429C57.5615 31.9429 52.6705 28.6857 84.6133 44.5532C98.6461 42.8 110.416 31.1632 122.123 36.2242C158.317 62.8857 167.12 9.39209 185.217 24.0936C203.522 34.1831 210.936 54.4396 224.345 47.1429C229.348 44.4209 243.099 48.6294 248.801 42.8C253.288 38.2117 255.648 24.0936 255.648 24.0936L266.897 20L283.527 28.6857L293.309 16.7429L307 12.9429V42C307 50.8366 299.836 58 291 58H14.8654C6.0288 58 -1.13464 50.8366 -1.13464 42V9.39209Z" fill="url(#paint0_linear)"/>
<path d="M-7 1C-7 1 4.4135 29.6658 19.4115 46.6284C34.4096 63.591 34.1434 29.2728 50.7141 29.781C67.2848 30.2893 74.7037 43.8805 85.4404 41.0126C95.411 38.3494 111.196 29.8383 121.145 35.3968C162.719 70.4956 163.968 16.7341 182.283 29.781C200.597 42.8279 214.353 56.064 227.769 46.6284C241.185 37.1929 248.312 73.3035 253.692 41.0126C259.408 18.2313 273.261 28.6142 279.614 35.3968C285.967 42.1794 294.287 17.8474 294.287 17.8474" stroke="url(#paint1_linear)" stroke-width="2.5"/>
<ellipse cx="296.733" cy="11.3143" rx="4.89103" ry="5.42858" stroke="#EF7DF7" stroke-width="2.5"/>
<defs>
<linearGradient id="paint0_linear" x1="299.21" y1="12.6365" x2="19.0698" y2="102.431" gradientUnits="userSpaceOnUse">
<stop stop-color="#21819F"/>
<stop offset="0.0628959" stop-color="#EBD9F2"/>
<stop offset="0.3125" stop-color="#E9D4F1"/>
<stop offset="0.375" stop-color="#61426D"/>
<stop offset="0.932292" stop-color="#A237D5"/>
<stop offset="1" stop-color="#B151E0"/>
</linearGradient>
<linearGradient id="paint1_linear" x1="282.545" y1="11.852" x2="-7.00383" y2="11.852" gradientUnits="userSpaceOnUse">
<stop stop-color="#10B9EE"/>
<stop offset="1" stop-color="#9835C3"/>
</linearGradient>
</defs>
</svg>
