<svg width="30" height="30" viewBox="0 0 30 30" fill="none" xmlns="http://www.w3.org/2000/svg">
<path d="M10 5H7.5C6.11929 5 5 6.11929 5 7.5V8.75C5 10.1307 6.11929 11.25 7.5 11.25H10C11.3807 11.25 12.5 10.1307 12.5 8.75V7.5C12.5 6.11929 11.3807 5 10 5Z" stroke="#0FB2AB" stroke-width="3.5" stroke-linecap="round" stroke-linejoin="round"/>
<path d="M10 16.25H7.5C6.11929 16.25 5 17.3693 5 18.75V22.5C5 23.8807 6.11929 25 7.5 25H10C11.3807 25 12.5 23.8807 12.5 22.5V18.75C12.5 17.3693 11.3807 16.25 10 16.25Z" stroke="#0FB2AB" stroke-width="3.5" stroke-linecap="round" stroke-linejoin="round"/>
<path d="M22.5 5H20C18.6193 5 17.5 6.11929 17.5 7.5V11.25C17.5 12.6307 18.6193 13.75 20 13.75H22.5C23.8807 13.75 25 12.6307 25 11.25V7.5C25 6.11929 23.8807 5 22.5 5Z" stroke="#0FB2AB" stroke-width="3.5" stroke-linecap="round" stroke-linejoin="round"/>
<path d="M22.5 18.75H20C18.6193 18.75 17.5 19.8693 17.5 21.25V22.5C17.5 23.8807 18.6193 25 20 25H22.5C23.8807 25 25 23.8807 25 22.5V21.25C25 19.8693 23.8807 18.75 22.5 18.75Z" stroke="#0FB2AB" stroke-width="3.5" stroke-linecap="round" stroke-linejoin="round"/>
</svg>
