<svg width="314" height="58" viewBox="0 0 314 58" fill="none" xmlns="http://www.w3.org/2000/svg">
<path opacity="0.07" fill-rule="evenodd" clip-rule="evenodd" d="M0.0165752 1C0.0165752 1 14.5114 10.2445 20.3676 16.3134C25.2193 21.3414 33 34.1791 37 41.4104C41 50.3433 62 40.5597 62 40.5597C62 40.5597 87.9729 28.3229 100 26.9478C108 28.2239 126.774 29.4467 132 32.4776C150 30.7761 163 28.2239 167.5 29.5C175.5 36.387 184.405 47.6484 197.5 48.1815C217 43.632 217.5 29.9254 232.5 28.2239C244 28.2239 249.674 38.8582 255.5 38.8582C261.326 38.8582 269.5 43.632 269.5 43.632L278.357 41.8358L293 32.903L314 25.2463V42C314 50.8366 306.837 58 298 58H16.0046C7.16627 58 0.0020839 50.8337 0.00465403 41.9953L0.0165752 1Z" fill="url(#paint0_linear)"/>
<path d="M297.5 34C297.5 34 296.771 35.918 281.5 48C266.229 60.0821 246.647 34 233 34C219.353 34 206.783 56.8314 197 56C179.554 54.5173 170.479 28.7316 157 34C125.444 46.3339 109.648 24.707 91.0001 34C72.352 43.293 70.5001 44 54.0001 51C42.1387 56.0321 38.2633 54.4531 32.443 38.2266C26.6227 22 0.00012207 1 0.00012207 1" stroke="url(#paint1_linear)" stroke-width="2.5"/>
<path d="M306 30.9996C306 33.761 303.761 35.9996 301 35.9996C298.238 35.9996 296 33.761 296 30.9996C296 28.2381 298.238 25.9996 301 25.9996C303.761 25.9996 306 28.2381 306 30.9996Z" fill="white" stroke="#39DABC" stroke-width="2.5"/>
<defs>
<linearGradient id="paint0_linear" x1="306.061" y1="4.80459" x2="13.925" y2="86.1783" gradientUnits="userSpaceOnUse">
<stop stop-color="white"/>
<stop offset="0.167626" stop-color="#39DABC"/>
<stop offset="1" stop-color="#06B39B"/>
</linearGradient>
<linearGradient id="paint1_linear" x1="287.616" y1="81.7439" x2="0.000116713" y2="81.7439" gradientUnits="userSpaceOnUse">
<stop stop-color="#39DABC"/>
<stop offset="1" stop-color="#06B39B"/>
</linearGradient>
</defs>
</svg>
