<svg width="30" height="30" viewBox="0 0 30 30" fill="none" xmlns="http://www.w3.org/2000/svg">
<path d="M11.25 8.75H7.5C6.83696 8.75 6.20107 9.01339 5.73223 9.48223C5.26339 9.95107 5 10.587 5 11.25V22.5C5 23.163 5.26339 23.7989 5.73223 24.2678C6.20107 24.7366 6.83696 25 7.5 25H18.75C19.413 25 20.0489 24.7366 20.5178 24.2678C20.9866 23.7989 21.25 23.163 21.25 22.5V18.75" stroke="#9191AF" stroke-width="3.5" stroke-linecap="round" stroke-linejoin="round"/>
<path d="M11.25 18.75H15L25.625 8.12504C26.1223 7.62776 26.4016 6.9533 26.4016 6.25004C26.4016 5.54678 26.1223 4.87232 25.625 4.37504C25.1277 3.87776 24.4533 3.59839 23.75 3.59839C23.0467 3.59839 22.3723 3.87776 21.875 4.37504L11.25 15V18.75Z" stroke="#9191AF" stroke-width="3.5" stroke-linecap="round" stroke-linejoin="round"/>
<path d="M20 6.25L23.75 10" stroke="#9191AF" stroke-width="3.5" stroke-linecap="round" stroke-linejoin="round"/>
</svg>
